<?xml version="1.0" encoding="UTF-8" standalone="no"?>
<svg
   xmlns:dc="http://purl.org/dc/elements/1.1/"
   xmlns:cc="http://creativecommons.org/ns#"
   xmlns:rdf="http://www.w3.org/1999/02/22-rdf-syntax-ns#"
   xmlns:svg="http://www.w3.org/2000/svg"
   xmlns="http://www.w3.org/2000/svg"
   id="svg8"
   version="1.1"
   viewBox="0 0 49.769455 49.7"
   height="49.700001mm"
   width="49.769455mm">
  <defs
     id="defs2" />
  <metadata
     id="metadata5">
    <rdf:RDF>
      <cc:Work
         rdf:about="">
        <dc:format>image/svg+xml</dc:format>
        <dc:type
           rdf:resource="http://purl.org/dc/dcmitype/StillImage" />
        <dc:title></dc:title>
      </cc:Work>
    </rdf:RDF>
  </metadata>
  <g
     transform="translate(-11.400987,-93.522203)"
     id="layer1">
    <g
       transform="matrix(1,0,0,1.1368396,8.8236955,-186.20395)"
       id="layer1-3">
      <path
         id="path4533"
         d="m 11.753515,289.68181 c -0.574822,-0.17686 -0.999045,-0.50278 -1.270218,-0.97592 l -0.270742,-0.47235 -0.03562,-6.23654 c -0.0196,-3.4301 -0.0031,-6.45868 0.03636,-6.7302 0.07763,-0.53226 -0.07471,-0.39247 4.734405,-4.34447 0.635203,-0.522 3.045301,-2.50537 5.355776,-4.4075 6.697115,-5.51349 6.801693,-5.59501 7.178041,-5.59501 0.335081,0 1.161402,0.61408 3.808214,2.83007 0.539919,0.45204 3.034532,2.50553 5.543586,4.5633 8.292754,6.80124 7.828625,6.39319 7.911125,6.95538 0.03972,0.27054 0.05596,3.29833 0.0361,6.72843 -0.03257,5.62973 -0.05535,6.27171 -0.23404,6.59812 -0.273791,0.5001 -0.824448,0.93754 -1.362634,1.08244 -0.295242,0.0795 -2.262678,0.11076 -5.651288,0.0897 l -5.198366,-0.0323 -0.32014,-0.32009 -0.320135,-0.32011 -0.05775,-5.32041 -0.05775,-5.32042 -0.272653,-0.22068 c -0.25519,-0.20653 -0.500152,-0.22066 -3.827285,-0.22066 -3.327047,0 -3.572103,0.0142 -3.827295,0.22065 l -0.27265,0.22065 -0.05775,5.32046 -0.05775,5.32044 -0.320144,0.32008 -0.32014,0.3201 -5.281191,0.0206 c -2.904657,0.0114 -5.419296,-0.0219 -5.588092,-0.0738 z M 5.5351536,274.44592 c -0.2943411,-0.0804 -2.7115845,-2.85122 -2.8884374,-3.31096 -0.2155102,-0.56021 -0.0186,-0.80896 1.889904,-2.38728 3.0343738,-2.50944 8.9699168,-7.40062 9.3583958,-7.71178 0.197853,-0.15848 2.136,-1.75087 4.306994,-3.53865 2.170991,-1.78778 4.192042,-3.45113 4.491221,-3.69631 0.299184,-0.24519 0.965558,-0.80255 1.48084,-1.23858 1.193935,-1.01033 1.940574,-1.36509 3.018566,-1.43428 1.008727,-0.0648 1.857747,0.16046 2.613573,0.69322 0.29567,0.20841 2.218599,1.76858 4.273177,3.46705 l 3.735606,3.08813 0.05775,-3.3389 c 0.05774,-3.33843 0.05778,-3.33894 0.33773,-3.63671 l 0.279991,-0.29781 h 2.84702 2.84702 l 0.279986,0.29795 0.27999,0.29794 0.03269,6.22472 0.03269,6.22472 3.605286,2.95353 c 1.982905,1.62443 3.678094,3.05707 3.76708,3.18364 0.348164,0.4952 0.19419,0.86312 -0.953012,2.27727 -1.245936,1.53585 -1.521278,1.81015 -1.912629,1.90536 -0.384184,0.0935 -0.545602,-0.009 -2.32003,-1.47607 -0.857526,-0.70889 -1.875185,-1.54535 -2.261463,-1.85882 -0.594438,-0.4824 -4.533877,-3.72424 -12.117209,-9.97151 -0.889287,-0.73262 -2.240533,-1.84826 -3.002775,-2.47923 -1.505795,-1.24645 -1.937684,-1.49168 -2.406384,-1.36633 -0.16691,0.0446 -0.967045,0.62962 -1.778081,1.29996 -2.332627,1.92798 -14.265509,11.75053 -16.8447917,13.86579 -1.9954494,1.63646 -2.636877,2.11693 -2.742537,2.05432 -0.0107,-0.006 -0.149359,-0.047 -0.3081581,-0.0904 z"
         style="fill:#000000;stroke-width:0.11549137" />
      <path
         id="path4531"
         d=""
         style="fill:#000000;stroke-width:0.26458335" />
      <path
         id="path4529"
         d=""
         style="fill:#000000;stroke-width:0.26458335" />
    </g>
  </g>
</svg>
